<svg xmlns="http://www.w3.org/2000/svg" viewBox="0 0 260 56" fill="none">
  <defs>
    <linearGradient id="b1" x1="0" y1="0" x2="0" y2="1">
      <stop offset="0" stop-color="#FFB272"/>
      <stop offset="1" stop-color="#F97316"/>
    </linearGradient>
    <linearGradient id="b2" x1="0" y1="0" x2="0" y2="1">
      <stop offset="0" stop-color="#F97316"/>
      <stop offset="1" stop-color="#C2410C"/>
    </linearGradient>
  </defs>
  <g transform="translate(4 4)">
    <path d="M4 20c0-8 9.4-13 21-13s21 5 21 13H4z" fill="url(#b1)"/>
    <circle cx="16" cy="14" r="1.3" fill="#FFEBC8"/>
    <circle cx="25" cy="11.5" r="1.3" fill="#FFEBC8"/>
    <circle cx="34" cy="14" r="1.3" fill="#FFEBC8"/>
    <rect x="2.5" y="23" width="45" height="4.2" rx="2" fill="#22C55E"/>
    <rect x="2.5" y="28" width="45" height="5" rx="1.7" fill="#7C2D12"/>
    <rect x="2.5" y="33.7" width="45" height="3.4" rx="1.7" fill="#FACC15"/>
    <path d="M2.5 38h45c0 6-9.4 10.5-22.5 10.5S2.5 44 2.5 38z" fill="url(#b2)"/>
  </g>
  <g fill="currentColor">
    <text x="64" y="36" font-family="'Inter','Segoe UI',system-ui,sans-serif" font-size="22" font-weight="800" letter-spacing="1.5">BURGER</text>
    <text x="160" y="36" font-family="'Inter','Segoe UI',system-ui,sans-serif" font-size="14" font-weight="500" letter-spacing="3" fill-opacity="0.6">TRADING</text>
  </g>
</svg>
